<?xml version="1.0" encoding="UTF-8"?>
<!DOCTYPE svg PUBLIC "-//W3C//DTD SVG 1.1//EN" "http://www.w3.org/Graphics/SVG/1.1/DTD/svg11.dtd">
<!-- Creator: CorelDRAW 2026 -->
<svg xmlns="http://www.w3.org/2000/svg" xml:space="preserve" width="6.875in" height="0.95in" version="1.1" shape-rendering="geometricPrecision" text-rendering="geometricPrecision" image-rendering="optimizeQuality" fill-rule="evenodd" clip-rule="evenodd"
viewBox="0 0 6875 950"
 xmlns:xlink="http://www.w3.org/1999/xlink"
 xmlns:xodm="http://www.corel.com/coreldraw/odm/2003">
 <g id="Layer_x0020_1">
  <metadata id="CorelCorpID_0Corel-Layer"/>
  <g>
   <path id="gavelband.eps" fill="none" fill-rule="nonzero" stroke="red" stroke-width="3" stroke-miterlimit="2.61313" d="M6477.64 1.67l-6355.14 0c-68.75,0 -125,61.07 -125,135.71l0 678.57c0,74.65 56.25,135.72 125,135.72l6355.14 0c217.18,0 394.86,-192.92 394.86,-428.7l0 -92.59c0,-235.79 -177.68,-428.7 -394.86,-428.7zm-47.49 784.28c-172.6,0 -302.5,-121.9 -302.5,-309.28 0,-187.39 129.9,-309.29 302.5,-309.29 172.59,0 302.5,121.91 302.5,309.29 0,187.38 -129.92,309.28 -302.5,309.28zm-5864.25 -3.2l0 3.2 -143.93 0 0 -3.98c-149.83,-25.05 -264.55,-135.62 -264.55,-305.3 0,-169.68 114.72,-280.26 264.55,-305.31l0 -3.98 143.93 0 0 3.2c152.5,22.5 270.06,134.35 270.06,306.09 0,171.74 -117.56,283.59 -270.06,306.08z"/>
  </g>
 </g>
</svg>
