<?xml version="1.0" encoding="UTF-8"?>
<!DOCTYPE svg PUBLIC "-//W3C//DTD SVG 1.1//EN" "http://www.w3.org/Graphics/SVG/1.1/DTD/svg11.dtd">
<!-- Creator: CorelDRAW 2026 -->
<svg xmlns="http://www.w3.org/2000/svg" xml:space="preserve" width="7in" height="0.95in" version="1.1" shape-rendering="geometricPrecision" text-rendering="geometricPrecision" image-rendering="optimizeQuality" fill-rule="evenodd" clip-rule="evenodd"
viewBox="0 0 7000 950"
 xmlns:xlink="http://www.w3.org/1999/xlink"
 xmlns:xodm="http://www.corel.com/coreldraw/odm/2003">
 <g id="Layer_x0020_1">
  <metadata id="CorelCorpID_0Corel-Layer"/>
  <g>
   <path id="gavelband.eps" fill="none" fill-rule="nonzero" stroke="red" stroke-width="3" stroke-miterlimit="2.61313" d="M6597.96 1.67l-6470.69 0c-70,0 -127.27,61.07 -127.27,135.71l0 678.57c0,74.65 57.27,135.72 127.27,135.72l6470.69 0c221.13,0 402.04,-192.92 402.04,-428.7l0 -92.59c0,-235.79 -180.91,-428.7 -402.04,-428.7zm-48.35 784.28c-175.74,0 -308,-121.9 -308,-309.28 0,-187.39 132.26,-309.29 308,-309.29 175.72,0 308,121.91 308,309.29 0,187.38 -132.28,309.28 -308,309.28zm-5970.87 -3.2l0 3.2 -146.54 0 0 -3.98c-152.55,-25.05 -269.36,-135.62 -269.36,-305.3 0,-169.68 116.81,-280.26 269.36,-305.31l0 -3.98 146.54 0 0 3.2c155.27,22.5 274.97,134.35 274.97,306.09 0,171.74 -119.7,283.59 -274.97,306.08z"/>
  </g>
 </g>
</svg>
